<?xml version="1.0" encoding="UTF-8"?>
<svg id="Warstwa_1" xmlns="http://www.w3.org/2000/svg" viewBox="0 0 70.4 89.7">
    <defs>
        <style>.cls-1{fill:#fff;stroke-width:0px;}</style>
    </defs>
    <path class="cls-1"
        d="m39.1,39.7v46c0,2.2-1.8,3.9-3.9,3.9h0c-2.2,0-3.9-1.8-3.9-3.9v-46c0-2.2,1.8-3.9,3.9-3.9h0c2.2,0,3.9,1.8,3.9,3.9Z" />
    <path class="cls-1" d="m56.1,27.2v54.6c0,4.4-4.1,7.9-9.2,7.9h0V27.2h9.2Z" />
    <path class="cls-1" d="m13.7,27.2v54.6c0,4.4,4.1,7.9,9.2,7.9h0V27.2s-9.2,0-9.2,0Z" />
    <path class="cls-1" d="m0,0h70.4c0,5.4-3.5,9.7-7.8,9.7H7.8C3.5,9.7,0,5.4,0,0h0Z" />
    <path class="cls-1" d="m7.8,18.2h54.7c0,5.4-3.5,9.8-7.8,9.8H15.6c-4.3,0-7.8-4.4-7.8-9.8h0Z" />
</svg>