<?xml version="1.0" encoding="utf-8"?>
<!-- Generator: Adobe Illustrator 27.9.1, SVG Export Plug-In . SVG Version: 6.00 Build 0)  -->
<svg version="1.1" id="Warstwa_1" xmlns="http://www.w3.org/2000/svg" xmlns:xlink="http://www.w3.org/1999/xlink" x="0px" y="0px"
	 viewBox="0 0 1920 1080" style="enable-background:new 0 0 1920 1080;" xml:space="preserve">
<style type="text/css">
	.st0{opacity:0.15;}
	.st1{fill:#FFFFFF;}
</style>
<g class="st0">
	<g>
		<g>
			<polygon class="st1" points="883.2,659.2 839,659.2 764.2,533.6 722.3,584.6 722.3,659.2 686.3,659.2 686.3,402.1 722.3,402.1 
				722.3,536.5 828,402.1 872.4,402.1 789.9,502.5 			"/>
			<path class="st1" d="M1197.9,439.4c-6.4-11.8-15.4-21-27-27.5c-11.6-6.6-25.1-9.8-40.7-9.8h-99.5v257.1h36.1v-99.7h63.5
				c15.6,0,29.1-3.2,40.7-9.7c11.6-6.5,20.5-15.6,27-27.4c6.4-11.8,9.6-25.6,9.6-41.4C1207.6,465.1,1204.3,451.2,1197.9,439.4z
				 M1159.9,513c-7.1,8.1-16.6,12.2-28.4,12.2h-64.7v-88.8h64.7c11.8,0,21.2,4.1,28.4,12.2c7.1,8.1,10.7,18.9,10.7,32.3
				C1170.6,494.2,1167,504.8,1159.9,513z"/>
			<path class="st1" d="M1528.4,439.4c-6.4-11.8-15.4-21-27-27.5c-11.6-6.6-25.1-9.8-40.7-9.8h-99.5v257.1h36.1v-99.7h63.5
				c15.6,0,29.1-3.2,40.7-9.7c11.6-6.5,20.6-15.6,27-27.4c6.4-11.8,9.6-25.6,9.6-41.4C1538.1,465.1,1534.8,451.2,1528.4,439.4z
				 M1490.4,513c-7.1,8.1-16.6,12.2-28.4,12.2h-64.7v-88.8h64.7c11.8,0,21.3,4.1,28.4,12.2c7.1,8.1,10.7,18.9,10.7,32.3
				C1501.1,494.2,1497.5,504.8,1490.4,513z"/>
			<path class="st1" d="M1780.2,402.1h-30.7l-94.8,257.1h38.9l19.4-56.4h103.7l19.4,56.4h38.9L1780.2,402.1z M1724.7,568.5
				l40.1-116.7l40.1,116.7H1724.7z"/>
		</g>
		<g>
			<path class="st1" d="M708.5,782.1c-0.9,0-2.3-0.1-3.7-0.1c-1.5,0-2.7,0-3.6,0.1v-0.2c0.9-0.1,1.2-0.2,1.2-0.5
				c0-0.4-0.8-1-1.6-1.8l-9.4-8.6v8c0,2.5,0.5,2.6,2,2.8v0.2c-0.9,0-2.2-0.1-3.6-0.1c-1.5,0-2.7,0-3.6,0.1v-0.2c1.5-0.2,2-0.3,2-2.8
				v-16.6c0-2.5-0.5-2.6-2-2.8v-0.2c0.9,0,2,0.1,3.6,0.1c1.4,0,2.7,0,3.6-0.1v0.2c-1.5,0.2-2,0.3-2,2.8v7.9l5.9-4.9
				c3.4-2.9,5.2-4.4,5.2-5.1c0-0.4-0.3-0.6-1.2-0.6v-0.2c0.9,0,1.8,0.1,3.3,0.1c1.4,0,2.8,0,3.6-0.1v0.2c-2.5,0.4-5.2,2.6-14.6,10.1
				l11.1,9.9c1.6,1.5,2.3,2.1,3.7,2.2V782.1z"/>
			<path class="st1" d="M710.1,776.9c0,0.3-0.1,0.5-0.1,0.8c0,2.5,3.2,3.9,6.4,3.9c2.8,0,5.6-1.3,5.6-4.2c0-6.2-12.2-6-12.2-12.7
				c0-3.3,3.2-5.5,7.6-5.5c2.4,0,3.8,0.5,5.4,0.5c0.2,0,0.4,0,0.7,0c-0.1,0.6-0.1,1.2-0.1,2c0,0.5,0,1.2,0,1.7h-0.2
				c-0.6-2.4-2.7-3.5-5.7-3.5c-2.6,0-5,1-5,3.5c0,5.9,12.2,5.7,12.2,12.8c0,3.9-3.7,6.3-8.5,6.3c-2.7,0-3.9-0.6-5.9-0.6
				c-0.2,0-0.4,0-0.6,0c0-0.2,0-0.5,0-0.8c0-0.7-0.2-1.4-0.2-2.1c0-0.6,0.1-1.3,0.5-1.9H710.1z"/>
			<path class="st1" d="M735.4,782.1c-0.9,0-2.2-0.1-3.6-0.1c-1.5,0-2.7,0-3.6,0.1v-0.2c1.5-0.2,2-0.3,2-2.8v-16.6
				c0-2.5-0.5-2.6-2-2.8v-0.2c0.9,0,2,0.1,3.6,0.1c1.4,0,2.7,0,3.6-0.1v0.2c-1.5,0.2-2,0.3-2,2.8v16.6c0,2.5,0.5,2.6,2,2.8V782.1z"
				/>
			<path class="st1" d="M754.6,787.9c-0.7,0.3-1.7,0.4-2.6,0.4c-1.7,0-3.3-0.5-3.3-1.8c0-1.3,1.8-3.1,4.4-4.4c-1.7,0-2.9,0-5.5,0
				c-3.1,0-7.3,0-8.2,0.1v-0.2c2-0.2,2.3-0.7,2.3-2.8v-16.6c0-2.5-0.7-2.6-2.4-2.8v-0.2c0.8,0,2.3,0.1,5.2,0.1c6.2,0,9.5,0,11.3-0.1
				c0,0.2,0,0.8,0,1.3c0,0.7,0,1.9-0.2,2.5h-0.2c0-2.7-1.3-2.8-7.3-2.8c-2.3,0-2.8,0.1-3.4,0.2v9.2c7.5,0,7.9-0.1,8.5-2.4h0.2
				c0,1-0.1,1.6-0.1,2.9c0,1.6,0,2.1,0.1,3.1h-0.2c-0.6-2.7-1-2.7-8.5-2.7v10c0.4,0.1,1.6,0.2,3.5,0.2c6.4,0,7.2,0,7.8-3.1h0.2
				c0,2.6-0.2,2.7-0.2,4.1l-2-0.1c-2.4,1.5-3.6,3-3.6,4c0,1.1,1,1.5,2.4,1.5c0.5,0,1.1-0.1,1.8-0.2L754.6,787.9z"/>
			<path class="st1" d="M781.5,774.3c0-2.6-0.8-2.6-2.3-2.8v-0.2c0.9,0,2.3,0.1,3.8,0.1c1.4,0,2.4,0,3.3-0.1v0.2
				c-1.5,0.2-1.8,0.4-1.8,2.8v6c-2.6,0.6-4.9,2-9.9,2c-10.4,0-16-5.6-16-11.4c0-6,5.6-11.5,15.5-11.5c3.8,0,6.7,0.6,10.4,1.5
				c-0.1,0.7-0.1,1.9-0.1,2.9c0,0.5,0,1,0,1.2h-0.2c-0.4-3.5-4.9-4.9-10-4.9c-5.6,0-12.1,2.9-12.1,10.7c0,6.5,5.5,10.8,12.5,10.8
				c2.2,0,5.1-0.5,6.7-1.8V774.3z"/>
			<path class="st1" d="M789,771c0-5.8,5.7-11.6,14.9-11.6c8,0,14.5,4.9,14.5,11.5c0,6.3-6.4,11.4-14.9,11.4
				C794.6,782.3,789,776.7,789,771z M814.7,771.1c0-7.8-5.6-11-11.1-11c-5.4,0-10.8,3.1-10.8,10.8c0,7.4,4.9,10.7,10.8,10.7
				C809.8,781.6,814.7,778.2,814.7,771.1z"/>
			<path class="st1" d="M842.9,782.7l-5.6-11.2l-5.9,11.2h-0.2L821.1,762c-0.7-1.5-1.2-2-2.8-2.3v-0.2c0.9,0,2.5,0.1,3.9,0.1
				c1.5,0,2.7,0,3.6-0.1v0.2c-1.3,0.1-1.8,0.5-1.8,1.2c0,0.4,0.2,0.9,0.5,1.5l7.7,15.7l4.4-8.1l-4-8c-0.9-1.8-1.7-2-3.3-2.3v-0.2
				c0.9,0,2.8,0.1,4.2,0.1c1.5,0,2.5,0,3.4-0.1v0.2c-1.2,0.1-1.6,0.5-1.6,1c0,0.4,0.2,1,0.6,1.6l2.3,4.5l0.8-1.5
				c1-1.9,1.7-3.2,1.7-4.2c0-0.9-0.6-1.4-2-1.6v-0.2c0.9,0,3.2,0.1,4.7,0.1c1.4,0,1.8,0,2.7-0.1v0.2c-2,0.3-3,0.8-5.8,6.2l-1.3,2.5
				l4.9,9.7l6.3-12.6c1-1.9,1.5-3.2,1.5-4.1c0-1-0.7-1.5-2.2-1.7v-0.1c0.9,0,3.6,0.1,5.1,0.1c1.4,0,1.8,0,2.7-0.1v0.1
				c-2,0.4-2.9,0.5-5.8,6.2l-8.4,16.8H842.9z"/>
			<path class="st1" d="M856.2,771c0-5.8,5.7-11.6,14.9-11.6c8,0,14.5,4.9,14.5,11.5c0,6.3-6.4,11.4-14.9,11.4
				C861.7,782.3,856.2,776.7,856.2,771z M881.9,771.1c0-7.8-5.6-11-11.1-11c-5.4,0-10.8,3.1-10.8,10.8c0,7.4,4.9,10.7,10.8,10.7
				C876.9,781.6,881.9,778.2,881.9,771.1z"/>
			<path class="st1" d="M889.5,776.9c0,0.3-0.1,0.5-0.1,0.8c0,2.5,3.2,3.9,6.4,3.9c2.8,0,5.6-1.3,5.6-4.2c0-6.2-12.2-6-12.2-12.7
				c0-3.3,3.2-5.5,7.6-5.5c2.4,0,3.8,0.5,5.4,0.5c0.2,0,0.4,0,0.7,0c-0.1,0.6-0.1,1.2-0.1,2c0,0.5,0,1.2,0,1.7h-0.2
				c-0.6-2.4-2.7-3.5-5.7-3.5c-2.6,0-5,1-5,3.5c0,5.9,12.2,5.7,12.2,12.8c0,3.9-3.7,6.3-8.5,6.3c-2.7,0-3.9-0.6-5.9-0.6
				c-0.2,0-0.4,0-0.6,0c0-0.2,0-0.5,0-0.8c0-0.7-0.2-1.4-0.2-2.1c0-0.6,0.1-1.3,0.5-1.9H889.5z M894.1,758.2l-0.4-0.3l5.5-4.7
				l1.6,1.2L894.1,758.2z"/>
			<path class="st1" d="M933.4,777c-0.2,1.1-0.2,2.2-0.2,3.3c-3.7,1.4-7.1,2-10.2,2c-10.4,0-16-5.6-16-11.4
				c0-5.7,5.2-11.5,15.5-11.5c4.2,0,7.9,0.9,10.7,1.5c-0.1,0.8-0.1,2-0.1,2.9c0,0.5,0,1,0,1.2h-0.2c-0.4-3.3-4.7-4.9-10.2-4.9
				c-6.4,0-12,3.3-12,10.9c0,7.4,6.9,10.5,12.9,10.5c4,0,8.4-1.4,9.6-4.5H933.4z M920.2,758.2l-0.4-0.3l5.5-4.7l1.6,1.2L920.2,758.2
				z"/>
		</g>
		<g>
			<path class="st1" d="M1058.3,782.2c-0.9,0-2.2-0.1-3.6-0.1c-1.5,0-2.7,0-3.6,0.1V782c1.5-0.2,2-0.3,2-2.8v-16.6
				c0-2.5-0.7-2.6-2.2-2.8v-0.2c0.9,0,2.2,0.1,3.3,0.1c2.2,0,3.3-0.1,4.8-0.1c7.1,0,9.9,2.7,9.9,6.1c0,3.1-2.9,6.2-8.2,6.2
				c-1.1,0-2.4-0.2-3.2-0.7l0.2-0.2c0.7,0.3,1.7,0.4,2.5,0.4c3.7,0,5.5-2.2,5.5-5.1c0-3.6-2.4-5.9-6.5-5.9c-0.9,0-1.9,0.1-2.9,0.3
				v18.5c0,2.5,0.5,2.6,2,2.8V782.2z"/>
			<path class="st1" d="M1092.2,782.2c-0.4,0-0.5,0-1,0c-4.2-0.1-4.7-0.5-9.5-7.3c-0.5-0.7-1.4-2.2-2.3-2.8h-2.6v7.1
				c0,2.5,0.5,2.6,2,2.8v0.2c-0.9,0-2.2-0.1-3.6-0.1c-1.5,0-2.7,0-3.6,0.1V782c1.5-0.2,2-0.3,2-2.8v-16.6c0-2.1-0.4-2.6-2-2.8v-0.2
				c1.4,0.1,2.1,0.1,3.9,0.1c1.2,0,3.3-0.1,4.2-0.1c6.2,0,9.6,2.6,9.6,6.2c0,2.6-2.3,5.1-7.1,5.9c1.3,0.8,5.8,9.2,9.7,10.2V782.2z
				 M1078.8,771.5c5.9,0,7.4-2.2,7.4-5.2c0-3.3-2.2-5.9-6.4-5.9c-0.9,0-1.8,0.1-2.9,0.3v10.7H1078.8z"/>
			<path class="st1" d="M1115.7,782.2c-0.9,0-2.2-0.1-3.6-0.1c-1.5,0-2.7,0-3.6,0.1V782c1.3-0.1,1.8-0.5,1.8-1.1
				c0-0.4-0.2-1-0.5-1.6l-2.4-5.8h-4.7c-1.5,0-2.9,0-4.3,0l-2.4,5c-0.4,0.8-0.7,1.5-0.7,2.1c0,0.7,0.5,1.2,1.9,1.4v0.2
				c-0.9,0-2.3-0.1-3.8-0.1c-1.4,0-1.9,0-2.8,0.1V782c2.1-0.4,2.7-0.7,4.5-4.3l9.2-18.5h0.4l8.6,20.5c0.8,1.9,0.9,2.2,2.4,2.3V782.2
				z M1103.3,763.5l-4.4,9.1c1.3,0,2.6,0,3.9,0h4.3L1103.3,763.5z"/>
			<path class="st1" d="M1140.2,782.8l-5.6-11.2l-5.9,11.2h-0.2l-10.1-20.6c-0.7-1.5-1.2-2-2.8-2.3v-0.2c0.9,0,2.5,0.1,3.9,0.1
				c1.5,0,2.7,0,3.6-0.1v0.2c-1.3,0.1-1.8,0.5-1.8,1.2c0,0.4,0.2,0.9,0.5,1.5l7.7,15.7l4.4-8.1l-4-8c-0.9-1.8-1.7-2-3.3-2.3v-0.2
				c0.9,0,2.8,0.1,4.2,0.1c1.5,0,2.5,0,3.4-0.1v0.2c-1.2,0.1-1.6,0.5-1.6,1.1c0,0.4,0.2,1,0.6,1.6l2.3,4.5l0.8-1.4
				c1-1.9,1.7-3.2,1.7-4.2c0-0.9-0.6-1.4-2-1.6v-0.2c0.9,0,3.2,0.1,4.7,0.1c1.4,0,1.8,0,2.7-0.1v0.2c-2,0.3-3,0.8-5.8,6.2l-1.3,2.5
				l4.9,9.7l6.3-12.6c1-1.9,1.5-3.2,1.5-4.1c0-1-0.7-1.5-2.2-1.7v-0.1c0.9,0,3.6,0.1,5.1,0.1c1.4,0,1.8,0,2.7-0.1v0.1
				c-2,0.4-2.9,0.5-5.8,6.2l-8.4,16.8H1140.2z"/>
			<path class="st1" d="M1153.4,771.1c0-5.8,5.7-11.6,14.9-11.6c8,0,14.5,4.9,14.5,11.5c0,6.3-6.4,11.4-14.9,11.4
				C1159,782.4,1153.4,776.8,1153.4,771.1z M1179.2,771.2c0-7.8-5.6-11-11.1-11c-5.4,0-10.8,3.1-10.8,10.8c0,7.4,4.9,10.7,10.8,10.7
				C1174.2,781.7,1179.2,778.4,1179.2,771.2z"/>
		</g>
		<g>
			<path class="st1" d="M1311.6,780.5c-0.9,0-2.2-0.1-3.6-0.1c-1.5,0-2.7,0-3.6,0.1v-0.2c1.5-0.2,2-0.3,2-2.8V761
				c0-2.5-0.7-2.6-2.2-2.8V758c0.9,0,2.2,0.1,3.3,0.1c2.2,0,3.3-0.1,4.8-0.1c7.1,0,9.9,2.7,9.9,6.1c0,3.1-2.9,6.2-8.2,6.2
				c-1.1,0-2.4-0.2-3.2-0.7l0.2-0.2c0.7,0.3,1.7,0.4,2.5,0.4c3.7,0,5.5-2.2,5.5-5.1c0-3.6-2.4-5.9-6.5-5.9c-0.9,0-1.9,0.1-2.9,0.3
				v18.5c0,2.5,0.5,2.6,2,2.8V780.5z"/>
			<path class="st1" d="M1324.4,769.4c0-5.8,5.7-11.6,14.9-11.6c8,0,14.5,4.9,14.5,11.5c0,6.3-6.4,11.4-14.9,11.4
				C1330,780.7,1324.4,775.1,1324.4,769.4z M1350.2,769.5c0-7.8-5.6-11-11.1-11c-5.4,0-10.8,3.1-10.8,10.8c0,7.4,4.9,10.7,10.8,10.7
				C1345.2,780,1350.2,776.7,1350.2,769.5z"/>
			<path class="st1" d="M1357.2,780.3c2.1-0.2,2.9-0.3,2.9-2.8V761c0-2.5-1.1-2.6-2.9-2.8V758c0.9,0,2.8,0.1,3.9,0.1
				c2.6,0,4.4,0,6.4,0c11.2,0,18.1,4.2,18.1,11.4c0,6-4.9,11.1-15.8,11.1c-2.1,0-5.8-0.1-8.3-0.1c-1.5,0-3.5,0-4.4,0.1V780.3z
				 M1363.1,779.3c2,0.3,4.8,0.4,6.7,0.4c6.9,0,12.4-2.3,12.4-10.5c0-7.5-6.3-10.5-14.4-10.5c-1.6,0-3.1,0.1-4.7,0.3V779.3z"/>
			<path class="st1" d="M1409.9,780.5c-0.9,0-2.2-0.1-3.6-0.1c-1.5,0-2.7,0-3.6,0.1v-0.2c1.3-0.1,1.8-0.5,1.8-1.1
				c0-0.4-0.2-1-0.5-1.6l-2.4-5.8h-4.7c-1.5,0-2.9,0-4.3,0l-2.4,5c-0.4,0.8-0.7,1.5-0.7,2.1c0,0.7,0.5,1.2,1.9,1.4v0.2
				c-0.9,0-2.3-0.1-3.8-0.1c-1.4,0-1.9,0-2.8,0.1v-0.2c2.1-0.4,2.7-0.7,4.5-4.3l9.2-18.5h0.4l8.6,20.5c0.8,1.9,0.9,2.2,2.4,2.3
				V780.5z M1397.5,761.8l-4.4,9.1c1.3,0,2.6,0,3.9,0h4.3L1397.5,761.8z"/>
			<path class="st1" d="M1425,780.5c-0.9,0-2.2-0.1-3.6-0.1c-1.5,0-2.7,0-3.6,0.1v-0.2c1.5-0.2,2-0.3,2-2.8v-18.3
				c-6.4,0-8.4,0-9.6,2h-0.2c0.3-1.2,0.9-1.9,1.4-3.9h0.2c0.1,1,1.1,1,8.9,1c9.2,0,10.8,0,12-0.8h0.2c-0.3,0.5-1.1,2.6-1.3,3.3h-0.2
				c0-0.1,0.1-0.3,0.1-0.5c0-1-1.2-1.1-8.4-1.1v18.3c0,2.5,0.5,2.6,2,2.8V780.5z"/>
			<path class="st1" d="M1456.6,780.5c-0.9,0-2.3-0.1-3.7-0.1c-1.5,0-2.7,0-3.6,0.1v-0.2c0.9-0.1,1.2-0.2,1.2-0.5
				c0-0.4-0.8-1-1.6-1.8l-9.4-8.6v8c0,2.5,0.5,2.6,2,2.8v0.2c-0.9,0-2.2-0.1-3.6-0.1c-1.5,0-2.7,0-3.6,0.1v-0.2c1.5-0.2,2-0.3,2-2.8
				V761c0-2.5-0.5-2.6-2-2.8V758c0.9,0,2,0.1,3.6,0.1c1.4,0,2.7,0,3.6-0.1v0.2c-1.5,0.2-2,0.3-2,2.8v7.9l5.9-4.9
				c3.4-2.9,5.2-4.4,5.2-5.1c0-0.4-0.3-0.6-1.2-0.6V758c0.9,0,1.8,0.1,3.3,0.1c1.4,0,2.8,0,3.6-0.1v0.2c-2.5,0.4-5.2,2.6-14.6,10.1
				l11.1,9.9c1.6,1.5,2.3,2.1,3.7,2.2V780.5z"/>
			<path class="st1" d="M1464.9,780.5c-0.9,0-2.2-0.1-3.6-0.1c-1.5,0-2.7,0-3.6,0.1v-0.2c1.5-0.2,2-0.3,2-2.8V761
				c0-2.5-0.5-2.6-2-2.8V758c0.9,0,2,0.1,3.6,0.1c1.4,0,2.7,0,3.6-0.1v0.2c-1.5,0.2-2,0.3-2,2.8v16.6c0,2.5,0.5,2.6,2,2.8V780.5z"/>
		</g>
		<g>
			<path class="st1" d="M1600.7,781.7c-0.9,0-2.2-0.1-3.6-0.1c-1.5,0-2.7,0-3.6,0.1v-0.2c1.3-0.1,1.8-0.5,1.8-1.1
				c0-0.4-0.2-1-0.5-1.6l-2.4-5.8h-4.7c-1.5,0-2.9,0-4.3,0l-2.4,5c-0.4,0.8-0.7,1.5-0.7,2.1c0,0.7,0.5,1.2,1.9,1.4v0.2
				c-0.9,0-2.3-0.1-3.8-0.1c-1.4,0-1.9,0-2.8,0.1v-0.2c2.1-0.4,2.7-0.7,4.5-4.3l9.2-18.5h0.4l8.6,20.5c0.8,1.9,0.9,2.2,2.4,2.3
				V781.7z M1588.3,763l-4.4,9.1c1.3,0,2.6,0,3.9,0h4.3L1588.3,763z"/>
			<path class="st1" d="M1602.6,781.6c2.1-0.2,2.9-0.3,2.9-2.8v-16.6c0-2.5-1.1-2.6-2.9-2.8v-0.2c0.9,0,2.8,0.1,3.9,0.1
				c2.6,0,4.4,0,6.4,0c11.2,0,18.1,4.2,18.1,11.4c0,6-4.9,11.1-15.8,11.1c-2.1,0-5.8-0.1-8.3-0.1c-1.5,0-3.5,0-4.4,0.1V781.6z
				 M1608.5,780.6c2,0.3,4.8,0.4,6.7,0.4c6.9,0,12.4-2.3,12.4-10.5c0-7.5-6.3-10.5-14.4-10.5c-1.6,0-3.1,0.1-4.7,0.3V780.6z"/>
			<path class="st1" d="M1667.5,781.7c-0.9,0-2.2-0.1-3.6-0.1c-1.5,0-3.1,0-4,0.1v-0.2c1.7-0.2,2.1-0.4,2.1-1.1
				c0-0.3-0.2-0.9-0.3-1.6l-3.3-14.6l-9.1,17.2h-0.2l-9.4-17.1l-3,13.2c-0.2,0.9-0.3,1.6-0.3,2.2c0,1.1,0.5,1.7,2.1,1.9v0.2
				c-0.9,0-2.5-0.1-4-0.1c-1.4,0-1.8,0-2.7,0.1v-0.2c2.2-0.4,2.9-1.5,3.6-4.4l4.5-18.4h0.2l10,18.5l9.9-18.5h0.2l4.9,20.5
				c0.4,1.6,0.8,2,2.5,2.3V781.7z"/>
			<path class="st1" d="M1676.9,781.7c-0.9,0-2.2-0.1-3.6-0.1c-1.5,0-2.7,0-3.6,0.1v-0.2c1.5-0.2,2-0.3,2-2.8v-16.6
				c0-2.5-0.5-2.6-2-2.8v-0.2c0.9,0,2,0.1,3.6,0.1c1.4,0,2.7,0,3.6-0.1v0.2c-1.5,0.2-2,0.3-2,2.8v16.6c0,2.5,0.5,2.6,2,2.8V781.7z"
				/>
			<path class="st1" d="M1707.7,782.3l-23.2-19.5v2.8c0,15.4,0,15.2,2.8,15.9v0.2c-0.9,0-2-0.1-3.5-0.1c-1.4,0-2.4,0-3.2,0.1v-0.2
				c2.6-0.7,2.7-0.6,2.7-16v-6.8h0.3l23.1,19.4v-2.7c0-15.6-0.1-15.4-2.8-16v-0.2c0.9,0,2,0.1,3.5,0.1c1.4,0,2.5,0,3.4-0.1v0.2
				c-2.7,0.7-2.8,0.4-2.8,15.8v7.1H1707.7z"/>
			<path class="st1" d="M1721.5,781.7c-0.9,0-2.2-0.1-3.6-0.1c-1.5,0-2.7,0-3.6,0.1v-0.2c1.5-0.2,2-0.3,2-2.8v-16.6
				c0-2.5-0.5-2.6-2-2.8v-0.2c0.9,0,2,0.1,3.6,0.1c1.4,0,2.7,0,3.6-0.1v0.2c-1.5,0.2-2,0.3-2,2.8v16.6c0,2.5,0.5,2.6,2,2.8V781.7z"
				/>
			<path class="st1" d="M1726.2,776.5c0,0.3-0.1,0.5-0.1,0.8c0,2.5,3.2,3.9,6.4,3.9c2.8,0,5.6-1.3,5.6-4.2c0-6.2-12.2-6-12.2-12.7
				c0-3.3,3.2-5.5,7.6-5.5c2.4,0,3.8,0.5,5.4,0.5c0.2,0,0.4,0,0.7,0c-0.1,0.6-0.1,1.2-0.1,2c0,0.5,0,1.2,0,1.7h-0.2
				c-0.6-2.4-2.7-3.5-5.7-3.5c-2.6,0-5,1-5,3.5c0,5.9,12.2,5.7,12.2,12.8c0,3.9-3.7,6.3-8.5,6.3c-2.7,0-3.9-0.6-5.9-0.6
				c-0.2,0-0.4,0-0.6,0c0-0.2,0-0.5,0-0.8c0-0.7-0.2-1.4-0.2-2.1c0-0.6,0.1-1.3,0.5-1.9H1726.2z"/>
			<path class="st1" d="M1756.9,781.7c-0.9,0-2.2-0.1-3.6-0.1c-1.5,0-2.7,0-3.6,0.1v-0.2c1.5-0.2,2-0.3,2-2.8v-18.3
				c-6.4,0-8.4,0-9.6,2h-0.2c0.3-1.2,0.9-1.9,1.4-3.9h0.2c0.1,1,1.1,1,8.9,1c9.2,0,10.8,0,12-0.8h0.2c-0.3,0.5-1.1,2.6-1.3,3.3h-0.2
				c0-0.1,0.1-0.3,0.1-0.5c0-1-1.2-1.1-8.4-1.1v18.3c0,2.5,0.5,2.6,2,2.8V781.7z"/>
			<path class="st1" d="M1786.8,781.7c-0.4,0-0.5,0-1,0c-4.2-0.1-4.7-0.5-9.5-7.3c-0.5-0.7-1.4-2.2-2.3-2.8h-2.6v7.1
				c0,2.5,0.5,2.6,2,2.8v0.2c-0.9,0-2.2-0.1-3.6-0.1c-1.5,0-2.7,0-3.6,0.1v-0.2c1.5-0.2,2-0.3,2-2.8v-16.6c0-2.1-0.4-2.6-2-2.8v-0.2
				c1.4,0.1,2.1,0.1,3.9,0.1c1.2,0,3.3-0.1,4.2-0.1c6.2,0,9.6,2.6,9.6,6.2c0,2.6-2.3,5.1-7.1,5.9c1.3,0.8,5.8,9.2,9.7,10.2V781.7z
				 M1773.4,771c5.9,0,7.4-2.3,7.4-5.2c0-3.3-2.2-5.9-6.4-5.9c-0.9,0-1.8,0.1-2.9,0.3V771H1773.4z"/>
			<path class="st1" d="M1810.3,781.7c-0.9,0-2.2-0.1-3.6-0.1c-1.5,0-2.7,0-3.6,0.1v-0.2c1.3-0.1,1.8-0.5,1.8-1.1
				c0-0.4-0.2-1-0.5-1.6l-2.4-5.8h-4.7c-1.5,0-2.9,0-4.3,0l-2.4,5c-0.4,0.8-0.7,1.5-0.7,2.1c0,0.7,0.5,1.2,1.9,1.4v0.2
				c-0.9,0-2.3-0.1-3.8-0.1c-1.4,0-1.9,0-2.8,0.1v-0.2c2.1-0.4,2.7-0.7,4.5-4.3l9.2-18.5h0.4l8.6,20.5c0.8,1.9,0.9,2.2,2.4,2.3
				V781.7z M1797.9,763l-4.4,9.1c1.3,0,2.6,0,3.9,0h4.3L1797.9,763z"/>
			<path class="st1" d="M1838.4,776.7c-0.2,1.1-0.2,2.2-0.2,3.3c-3.7,1.4-7.1,2-10.2,2c-10.4,0-16-5.6-16-11.4
				c0-5.7,5.2-11.5,15.5-11.5c4.2,0,7.9,0.9,10.7,1.5c-0.1,0.8-0.1,2-0.1,2.9c0,0.5,0,1,0,1.2h-0.2c-0.4-3.3-4.7-4.9-10.2-4.9
				c-6.4,0-12,3.3-12,10.9c0,7.4,6.9,10.5,12.9,10.5c4,0,8.4-1.4,9.6-4.5H1838.4z"/>
			<path class="st1" d="M1840.9,787.6c2.9-0.4,3.3-1.1,3.3-3.9v-21.6c0-2.5-1-2.6-2.6-2.8v-0.2c0.9,0,2.6,0.1,4.1,0.1
				c1.4,0,3.1,0,3.9-0.1v0.2c-1.6,0.2-2.4,0.3-2.4,2.8v18.9c0,3.7-1.1,6.2-6.3,6.7L1840.9,787.6z"/>
			<path class="st1" d="M1874.9,781.7c-0.9,0-2.2-0.1-3.6-0.1c-1.5,0-2.7,0-3.6,0.1v-0.2c1.3-0.1,1.8-0.5,1.8-1.1
				c0-0.4-0.2-1-0.5-1.6l-2.4-5.8h-4.7c-1.5,0-2.9,0-4.3,0l-2.4,5c-0.4,0.8-0.7,1.5-0.7,2.1c0,0.7,0.5,1.2,1.9,1.4v0.2
				c-0.9,0-2.3-0.1-3.8-0.1c-1.4,0-1.9,0-2.8,0.1v-0.2c2.1-0.4,2.7-0.7,4.5-4.3l9.2-18.5h0.4l8.6,20.5c0.8,1.9,0.9,2.2,2.4,2.3
				V781.7z M1862.5,763l-4.4,9.1c1.3,0,2.6,0,3.9,0h4.3L1862.5,763z"/>
		</g>
		<circle class="st1" cx="987.8" cy="770.4" r="3.2"/>
		<circle class="st1" cx="1240.9" cy="770.4" r="3.2"/>
		<circle class="st1" cx="1524" cy="770.4" r="3.2"/>
	</g>
	<g>
		<g>
			<g>
				<path class="st1" d="M45.5,365.4v295.4c0,128.1,104.2,237.8,232.3,237.8c128.1,0,232.3-109.7,232.3-237.8V365.4H45.5z
					 M474.4,656.4c0,108.4-88.2,201.3-196.7,201.3c-108.4,0-196.6-92.9-196.6-201.3V406.3h393.3V656.4z"/>
			</g>
			<path class="st1" d="M510.5,238.5h-338c-8.3-26.5-33-45.7-62.2-45.7c-35.9,0-65.2,29.2-65.2,65.2c0,35.9,29.2,65.2,65.2,65.2
				c29.2,0,53.9-19.3,62.2-45.7h338V238.5z M110.3,284.2C95.8,284.2,84,272.5,84,258c0-14.5,11.8-26.3,26.3-26.3
				c14.5,0,26.3,11.8,26.3,26.3C136.5,272.5,124.7,284.2,110.3,284.2"/>
			<rect x="423.7" y="181.3" class="st1" width="86.8" height="38.9"/>
		</g>
		<g id="XMLID_85_">
			<path id="XMLID_1336_" class="st1" d="M291.2,600.6v157.7c0,7.4-6,13.4-13.4,13.4l0,0c-7.4,0-13.4-6-13.4-13.4V600.6
				c0-7.4,6-13.4,13.4-13.4l0,0C285.2,587.2,291.2,593.2,291.2,600.6z"/>
			<path id="XMLID_1335_" class="st1" d="M349.5,557.5v187c0,15-14.1,27.2-31.5,27.2l0,0V557.5H349.5z"/>
			<path id="XMLID_00000003807400376013352160000017295169007582775436_" class="st1" d="M204.1,557.5v187c0,15,14.1,27.2,31.5,27.2
				l0,0V557.5H204.1z"/>
			<path id="XMLID_1334_" class="st1" d="M157.2,464.4h241.2l0,0c0,18.4-12,33.2-26.8,33.2H184C169.2,497.6,157.2,482.7,157.2,464.4
				L157.2,464.4z"/>
			<path id="XMLID_1333_" class="st1" d="M184,526.7h187.6l0,0c0,18.6-12,33.7-26.8,33.7h-134C196,560.4,184,545.3,184,526.7
				L184,526.7z"/>
		</g>
	</g>
</g>
</svg>
