<?xml version="1.0" encoding="utf-8"?>
<!-- Generator: Adobe Illustrator 27.9.1, SVG Export Plug-In . SVG Version: 6.00 Build 0)  -->
<svg version="1.1" id="Warstwa_1" xmlns="http://www.w3.org/2000/svg"
	xmlns:xlink="http://www.w3.org/1999/xlink" x="0px" y="0px"
	viewBox="0 0 300 100" style="enable-background:new 0 0 300 100;" xml:space="preserve">
<style type="text/css">
	.st0{fill:#FFFFFF;}
</style>
<g>
	<g>
		<g>
			<polygon class="st0" points="130.3,57.8 123.4,57.8 111.7,38.1 105.2,46.1 105.2,57.8 99.5,57.8 99.5,17.6 105.2,17.6 
				105.2,38.6 121.7,17.6 128.6,17.6 115.7,33.3 			"/>
			<path class="st0" d="M179.5,23.4c-1-1.8-2.4-3.3-4.2-4.3c-1.8-1-3.9-1.5-6.4-1.5h-15.6v40.2h5.6V42.2h9.9c2.4,0,4.5-0.5,6.4-1.5
				c1.8-1,3.2-2.4,4.2-4.3c1-1.8,1.5-4,1.5-6.5C181,27.4,180.5,25.3,179.5,23.4z M173.5,34.9c-1.1,1.3-2.6,1.9-4.4,1.9H159V23h10.1
				c1.8,0,3.3,0.6,4.4,1.9c1.1,1.3,1.7,3,1.7,5.1C175.2,32,174.6,33.6,173.5,34.9z"/>
			<path class="st0" d="M231.1,23.4c-1-1.8-2.4-3.3-4.2-4.3c-1.8-1-3.9-1.5-6.4-1.5H205v40.2h5.6V42.2h9.9c2.4,0,4.5-0.5,6.4-1.5
				c1.8-1,3.2-2.4,4.2-4.3c1-1.8,1.5-4,1.5-6.5C232.6,27.4,232.1,25.3,231.1,23.4z M225.2,34.9c-1.1,1.3-2.6,1.9-4.4,1.9h-10.1V23
				h10.1c1.8,0,3.3,0.6,4.4,1.9c1.1,1.3,1.7,3,1.7,5.1C226.8,32,226.3,33.6,225.2,34.9z"/>
			<path class="st0" d="M270.4,17.6h-4.8l-14.8,40.2h6.1l3-8.8h16.2l3,8.8h6.1L270.4,17.6z M261.8,43.6l6.3-18.2l6.3,18.2H261.8z"/>
		</g>
		<g>
			<path class="st0" d="M103.3,81.1c-0.1,0-0.4,0-0.6,0c-0.2,0-0.4,0-0.6,0v0c0.1,0,0.2,0,0.2-0.1c0-0.1-0.1-0.2-0.3-0.3l-1.5-1.3
				v1.3c0,0.4,0.1,0.4,0.3,0.4v0c-0.1,0-0.3,0-0.6,0c-0.2,0-0.4,0-0.6,0v0c0.2,0,0.3-0.1,0.3-0.4V78c0-0.4-0.1-0.4-0.3-0.4v0
				c0.1,0,0.3,0,0.6,0c0.2,0,0.4,0,0.6,0v0c-0.2,0-0.3,0.1-0.3,0.4v1.2l0.9-0.8c0.5-0.4,0.8-0.7,0.8-0.8c0-0.1,0-0.1-0.2-0.1v0
				c0.1,0,0.3,0,0.5,0c0.2,0,0.4,0,0.6,0v0c-0.4,0.1-0.8,0.4-2.3,1.6l1.7,1.6C103,81,103.1,81.1,103.3,81.1L103.3,81.1z"/>
			<path class="st0" d="M103.6,80.3c0,0,0,0.1,0,0.1c0,0.4,0.5,0.6,1,0.6c0.4,0,0.9-0.2,0.9-0.6c0-1-1.9-0.9-1.9-2
				c0-0.5,0.5-0.9,1.2-0.9c0.4,0,0.6,0.1,0.8,0.1c0,0,0.1,0,0.1,0c0,0.1,0,0.2,0,0.3c0,0.1,0,0.2,0,0.3h0c-0.1-0.4-0.4-0.6-0.9-0.6
				c-0.4,0-0.8,0.2-0.8,0.5c0,0.9,1.9,0.9,1.9,2c0,0.6-0.6,1-1.3,1c-0.4,0-0.6-0.1-0.9-0.1c0,0-0.1,0-0.1,0c0,0,0-0.1,0-0.1
				c0-0.1,0-0.2,0-0.3C103.5,80.5,103.5,80.4,103.6,80.3L103.6,80.3z"/>
			<path class="st0" d="M107.5,81.1c-0.1,0-0.3,0-0.6,0c-0.2,0-0.4,0-0.6,0v0c0.2,0,0.3-0.1,0.3-0.4V78c0-0.4-0.1-0.4-0.3-0.4v0
				c0.1,0,0.3,0,0.6,0c0.2,0,0.4,0,0.6,0v0c-0.2,0-0.3,0.1-0.3,0.4v2.6C107.2,81,107.3,81,107.5,81.1L107.5,81.1z"/>
			<path class="st0" d="M110.5,82c-0.1,0-0.3,0.1-0.4,0.1c-0.3,0-0.5-0.1-0.5-0.3c0-0.2,0.3-0.5,0.7-0.7c-0.3,0-0.5,0-0.9,0
				c-0.5,0-1.1,0-1.3,0v0c0.3,0,0.4-0.1,0.4-0.4V78c0-0.4-0.1-0.4-0.4-0.4v0c0.1,0,0.4,0,0.8,0c1,0,1.5,0,1.8,0c0,0,0,0.1,0,0.2
				c0,0.1,0,0.3,0,0.4h0c0-0.4-0.2-0.4-1.1-0.4c-0.4,0-0.4,0-0.5,0v1.4c1.2,0,1.2,0,1.3-0.4h0c0,0.1,0,0.3,0,0.4c0,0.3,0,0.3,0,0.5
				h0c-0.1-0.4-0.2-0.4-1.3-0.4v1.6c0.1,0,0.2,0,0.5,0c1,0,1.1,0,1.2-0.5h0c0,0.4,0,0.4,0,0.6l-0.3,0c-0.4,0.2-0.6,0.5-0.6,0.6
				c0,0.2,0.2,0.2,0.4,0.2C110.3,82,110.4,81.9,110.5,82L110.5,82z"/>
			<path class="st0" d="M114.7,79.9c0-0.4-0.1-0.4-0.4-0.4v0c0.1,0,0.4,0,0.6,0c0.2,0,0.4,0,0.5,0v0c-0.2,0-0.3,0.1-0.3,0.4v0.9
				c-0.4,0.1-0.8,0.3-1.5,0.3c-1.6,0-2.5-0.9-2.5-1.8c0-0.9,0.9-1.8,2.4-1.8c0.6,0,1,0.1,1.6,0.2c0,0.1,0,0.3,0,0.5
				c0,0.1,0,0.2,0,0.2h0c-0.1-0.5-0.8-0.8-1.6-0.8c-0.9,0-1.9,0.5-1.9,1.7c0,1,0.9,1.7,2,1.7c0.3,0,0.8-0.1,1.1-0.3V79.9z"/>
			<path class="st0" d="M115.9,79.4c0-0.9,0.9-1.8,2.3-1.8c1.2,0,2.3,0.8,2.3,1.8c0,1-1,1.8-2.3,1.8
				C116.8,81.1,115.9,80.2,115.9,79.4z M119.9,79.4c0-1.2-0.9-1.7-1.7-1.7c-0.8,0-1.7,0.5-1.7,1.7c0,1.2,0.8,1.7,1.7,1.7
				C119.2,81,119.9,80.5,119.9,79.4z"/>
			<path class="st0" d="M124.3,81.2l-0.9-1.7l-0.9,1.7h0l-1.6-3.2c-0.1-0.2-0.2-0.3-0.4-0.4v0c0.1,0,0.4,0,0.6,0c0.2,0,0.4,0,0.6,0
				v0c-0.2,0-0.3,0.1-0.3,0.2c0,0.1,0,0.1,0.1,0.2l1.2,2.5l0.7-1.3l-0.6-1.2c-0.1-0.3-0.3-0.3-0.5-0.4v0c0.1,0,0.4,0,0.7,0
				c0.2,0,0.4,0,0.5,0v0c-0.2,0-0.3,0.1-0.3,0.2c0,0.1,0,0.2,0.1,0.3l0.4,0.7l0.1-0.2c0.2-0.3,0.3-0.5,0.3-0.7
				c0-0.1-0.1-0.2-0.3-0.2v0c0.1,0,0.5,0,0.7,0c0.2,0,0.3,0,0.4,0v0c-0.3,0-0.5,0.1-0.9,1l-0.2,0.4l0.8,1.5l1-2
				c0.2-0.3,0.2-0.5,0.2-0.6c0-0.2-0.1-0.2-0.4-0.3v0c0.1,0,0.6,0,0.8,0c0.2,0,0.3,0,0.4,0v0c-0.3,0.1-0.5,0.1-0.9,1L124.3,81.2
				L124.3,81.2z"/>
			<path class="st0" d="M126.4,79.4c0-0.9,0.9-1.8,2.3-1.8c1.2,0,2.3,0.8,2.3,1.8c0,1-1,1.8-2.3,1.8
				C127.3,81.1,126.4,80.2,126.4,79.4z M130.4,79.4c0-1.2-0.9-1.7-1.7-1.7c-0.8,0-1.7,0.5-1.7,1.7c0,1.2,0.8,1.7,1.7,1.7
				C129.6,81,130.4,80.5,130.4,79.4z"/>
			<path class="st0" d="M131.6,80.3c0,0,0,0.1,0,0.1c0,0.4,0.5,0.6,1,0.6c0.4,0,0.9-0.2,0.9-0.6c0-1-1.9-0.9-1.9-2
				c0-0.5,0.5-0.9,1.2-0.9c0.4,0,0.6,0.1,0.8,0.1c0,0,0.1,0,0.1,0c0,0.1,0,0.2,0,0.3c0,0.1,0,0.2,0,0.3h0c-0.1-0.4-0.4-0.6-0.9-0.6
				c-0.4,0-0.8,0.2-0.8,0.5c0,0.9,1.9,0.9,1.9,2c0,0.6-0.6,1-1.3,1c-0.4,0-0.6-0.1-0.9-0.1c0,0-0.1,0-0.1,0c0,0,0-0.1,0-0.1
				c0-0.1,0-0.2,0-0.3C131.5,80.5,131.5,80.4,131.6,80.3L131.6,80.3z M132.3,77.4L132.3,77.4l0.8-0.8l0.2,0.2L132.3,77.4z"/>
			<path class="st0" d="M138.5,80.3c0,0.2,0,0.3,0,0.5c-0.6,0.2-1.1,0.3-1.6,0.3c-1.6,0-2.5-0.9-2.5-1.8c0-0.9,0.8-1.8,2.4-1.8
				c0.7,0,1.2,0.1,1.7,0.2c0,0.1,0,0.3,0,0.5c0,0.1,0,0.1,0,0.2h0c-0.1-0.5-0.7-0.8-1.6-0.8c-1,0-1.9,0.5-1.9,1.7
				c0,1.2,1.1,1.6,2,1.6C137.6,81,138.2,80.8,138.5,80.3L138.5,80.3z M136.4,77.4L136.4,77.4l0.8-0.8l0.2,0.2L136.4,77.4z"/>
		</g>
		<g>
			<path class="st0" d="M157.6,81.1c-0.1,0-0.3,0-0.6,0c-0.2,0-0.4,0-0.6,0v0c0.2,0,0.3-0.1,0.3-0.4v-2.6c0-0.4-0.1-0.4-0.4-0.4v0
				c0.1,0,0.3,0,0.5,0c0.4,0,0.5,0,0.8,0c1.1,0,1.5,0.4,1.5,0.9c0,0.5-0.5,1-1.3,1c-0.2,0-0.4,0-0.5-0.1l0,0c0.1,0,0.3,0.1,0.4,0.1
				c0.6,0,0.9-0.3,0.9-0.8c0-0.6-0.4-0.9-1-0.9c-0.1,0-0.3,0-0.4,0v2.9C157.3,81,157.4,81.1,157.6,81.1L157.6,81.1z"/>
			<path class="st0" d="M163,81.1c-0.1,0-0.1,0-0.2,0c-0.7,0-0.7-0.1-1.5-1.1c-0.1-0.1-0.2-0.3-0.4-0.4h-0.4v1.1
				c0,0.4,0.1,0.4,0.3,0.4v0c-0.1,0-0.3,0-0.6,0c-0.2,0-0.4,0-0.6,0v0c0.2,0,0.3-0.1,0.3-0.4v-2.6c0-0.3-0.1-0.4-0.3-0.4v0
				c0.2,0,0.3,0,0.6,0c0.2,0,0.5,0,0.7,0c1,0,1.5,0.4,1.5,1c0,0.4-0.4,0.8-1.1,0.9C161.6,79.6,162.3,80.9,163,81.1L163,81.1z
				 M160.8,79.4c0.9,0,1.2-0.4,1.2-0.8c0-0.5-0.3-0.9-1-0.9c-0.1,0-0.3,0-0.5,0v1.7H160.8z"/>
			<path class="st0" d="M166.6,81.1c-0.1,0-0.3,0-0.6,0c-0.2,0-0.4,0-0.6,0v0c0.2,0,0.3-0.1,0.3-0.2c0-0.1,0-0.2-0.1-0.3l-0.4-0.9
				h-0.7c-0.2,0-0.5,0-0.7,0l-0.4,0.8c-0.1,0.1-0.1,0.2-0.1,0.3c0,0.1,0.1,0.2,0.3,0.2v0c-0.1,0-0.4,0-0.6,0c-0.2,0-0.3,0-0.4,0v0
				c0.3-0.1,0.4-0.1,0.7-0.7l1.4-2.9h0.1l1.3,3.2C166.4,81,166.4,81.1,166.6,81.1L166.6,81.1z M164.7,78.2l-0.7,1.4
				c0.2,0,0.4,0,0.6,0h0.7L164.7,78.2z"/>
			<path class="st0" d="M170.4,81.2l-0.9-1.7l-0.9,1.7h0L167,78c-0.1-0.2-0.2-0.3-0.4-0.4v0c0.1,0,0.4,0,0.6,0c0.2,0,0.4,0,0.6,0v0
				c-0.2,0-0.3,0.1-0.3,0.2c0,0.1,0,0.1,0.1,0.2l1.2,2.5l0.7-1.3l-0.6-1.2c-0.1-0.3-0.3-0.3-0.5-0.4v0c0.1,0,0.4,0,0.7,0
				c0.2,0,0.4,0,0.5,0v0c-0.2,0-0.3,0.1-0.3,0.2c0,0.1,0,0.2,0.1,0.3l0.4,0.7l0.1-0.2c0.2-0.3,0.3-0.5,0.3-0.7
				c0-0.1-0.1-0.2-0.3-0.2v0c0.1,0,0.5,0,0.7,0c0.2,0,0.3,0,0.4,0v0c-0.3,0-0.5,0.1-0.9,1l-0.2,0.4l0.8,1.5l1-2
				c0.2-0.3,0.2-0.5,0.2-0.6c0-0.2-0.1-0.2-0.4-0.3v0c0.1,0,0.6,0,0.8,0c0.2,0,0.3,0,0.4,0v0c-0.3,0.1-0.5,0.1-0.9,1L170.4,81.2
				L170.4,81.2z"/>
			<path class="st0" d="M172.5,79.4c0-0.9,0.9-1.8,2.3-1.8c1.2,0,2.3,0.8,2.3,1.8c0,1-1,1.8-2.3,1.8
				C173.4,81.1,172.5,80.3,172.5,79.4z M176.5,79.4c0-1.2-0.9-1.7-1.7-1.7c-0.8,0-1.7,0.5-1.7,1.7c0,1.2,0.8,1.7,1.7,1.7
				C175.8,81,176.5,80.5,176.5,79.4z"/>
		</g>
		<g>
			<path class="st0" d="M197.2,80.8c-0.1,0-0.3,0-0.6,0c-0.2,0-0.4,0-0.6,0v0c0.2,0,0.3-0.1,0.3-0.4v-2.6c0-0.4-0.1-0.4-0.4-0.4v0
				c0.1,0,0.3,0,0.5,0c0.4,0,0.5,0,0.8,0c1.1,0,1.5,0.4,1.5,0.9c0,0.5-0.5,1-1.3,1c-0.2,0-0.4,0-0.5-0.1l0,0c0.1,0,0.3,0.1,0.4,0.1
				c0.6,0,0.9-0.3,0.9-0.8c0-0.6-0.4-0.9-1-0.9c-0.1,0-0.3,0-0.4,0v2.9C196.9,80.8,197,80.8,197.2,80.8L197.2,80.8z"/>
			<path class="st0" d="M199.2,79.1c0-0.9,0.9-1.8,2.3-1.8c1.2,0,2.3,0.8,2.3,1.8c0,1-1,1.8-2.3,1.8C200.1,80.9,199.2,80,199.2,79.1
				z M203.2,79.1c0-1.2-0.9-1.7-1.7-1.7c-0.8,0-1.7,0.5-1.7,1.7c0,1.2,0.8,1.7,1.7,1.7C202.5,80.8,203.2,80.2,203.2,79.1z"/>
			<path class="st0" d="M204.3,80.8c0.3,0,0.5,0,0.5-0.4v-2.6c0-0.4-0.2-0.4-0.4-0.4v0c0.1,0,0.4,0,0.6,0c0.4,0,0.7,0,1,0
				c1.7,0,2.8,0.7,2.8,1.8c0,0.9-0.8,1.7-2.5,1.7c-0.3,0-0.9,0-1.3,0C204.8,80.8,204.5,80.8,204.3,80.8L204.3,80.8z M205.3,80.7
				c0.3,0,0.7,0.1,1.1,0.1c1.1,0,1.9-0.4,1.9-1.6c0-1.2-1-1.6-2.3-1.6c-0.2,0-0.5,0-0.7,0.1V80.7z"/>
			<path class="st0" d="M212.6,80.8c-0.1,0-0.3,0-0.6,0c-0.2,0-0.4,0-0.6,0v0c0.2,0,0.3-0.1,0.3-0.2c0-0.1,0-0.2-0.1-0.3l-0.4-0.9
				h-0.7c-0.2,0-0.5,0-0.7,0l-0.4,0.8c-0.1,0.1-0.1,0.2-0.1,0.3c0,0.1,0.1,0.2,0.3,0.2v0c-0.1,0-0.4,0-0.6,0c-0.2,0-0.3,0-0.4,0v0
				c0.3-0.1,0.4-0.1,0.7-0.7l1.4-2.9h0.1l1.3,3.2C212.3,80.8,212.3,80.8,212.6,80.8L212.6,80.8z M210.6,77.9l-0.7,1.4
				c0.2,0,0.4,0,0.6,0h0.7L210.6,77.9z"/>
			<path class="st0" d="M214.9,80.8c-0.1,0-0.3,0-0.6,0c-0.2,0-0.4,0-0.6,0v0c0.2,0,0.3-0.1,0.3-0.4v-2.9c-1,0-1.3,0-1.5,0.3h0
				c0.1-0.2,0.1-0.3,0.2-0.6h0c0,0.2,0.2,0.2,1.4,0.2c1.4,0,1.7,0,1.9-0.1h0c0,0.1-0.2,0.4-0.2,0.5h0c0,0,0,0,0-0.1
				c0-0.1-0.2-0.2-1.3-0.2v2.9C214.6,80.8,214.7,80.8,214.9,80.8L214.9,80.8z"/>
			<path class="st0" d="M219.9,80.8c-0.1,0-0.4,0-0.6,0c-0.2,0-0.4,0-0.6,0v0c0.1,0,0.2,0,0.2-0.1c0-0.1-0.1-0.2-0.3-0.3l-1.5-1.3
				v1.3c0,0.4,0.1,0.4,0.3,0.4v0c-0.1,0-0.3,0-0.6,0c-0.2,0-0.4,0-0.6,0v0c0.2,0,0.3-0.1,0.3-0.4v-2.6c0-0.4-0.1-0.4-0.3-0.4v0
				c0.1,0,0.3,0,0.6,0c0.2,0,0.4,0,0.6,0v0c-0.2,0-0.3,0.1-0.3,0.4V79l0.9-0.8c0.5-0.4,0.8-0.7,0.8-0.8c0-0.1,0-0.1-0.2-0.1v0
				c0.1,0,0.3,0,0.5,0c0.2,0,0.4,0,0.6,0v0c-0.4,0.1-0.8,0.4-2.3,1.6l1.7,1.6C219.6,80.7,219.7,80.8,219.9,80.8L219.9,80.8z"/>
			<path class="st0" d="M221.2,80.8c-0.1,0-0.3,0-0.6,0c-0.2,0-0.4,0-0.6,0v0c0.2,0,0.3-0.1,0.3-0.4v-2.6c0-0.4-0.1-0.4-0.3-0.4v0
				c0.1,0,0.3,0,0.6,0c0.2,0,0.4,0,0.6,0v0c-0.2,0-0.3,0.1-0.3,0.4v2.6C220.9,80.8,220.9,80.8,221.2,80.8L221.2,80.8z"/>
		</g>
		<g>
			<path class="st0" d="M244.2,81c-0.1,0-0.3,0-0.6,0c-0.2,0-0.4,0-0.6,0v0c0.2,0,0.3-0.1,0.3-0.2c0-0.1,0-0.2-0.1-0.3l-0.4-0.9
				h-0.7c-0.2,0-0.5,0-0.7,0l-0.4,0.8c-0.1,0.1-0.1,0.2-0.1,0.3c0,0.1,0.1,0.2,0.3,0.2v0c-0.1,0-0.4,0-0.6,0c-0.2,0-0.3,0-0.4,0v0
				c0.3-0.1,0.4-0.1,0.7-0.7l1.4-2.9h0.1l1.3,3.2C243.9,80.9,243.9,81,244.2,81L244.2,81z M242.2,78.1l-0.7,1.4c0.2,0,0.4,0,0.6,0
				h0.7L242.2,78.1z"/>
			<path class="st0" d="M244.5,81c0.3,0,0.5,0,0.5-0.4V78c0-0.4-0.2-0.4-0.4-0.4v0c0.1,0,0.4,0,0.6,0c0.4,0,0.7,0,1,0
				c1.7,0,2.8,0.7,2.8,1.8c0,0.9-0.8,1.7-2.5,1.7c-0.3,0-0.9,0-1.3,0C244.9,81,244.6,81,244.5,81L244.5,81z M245.4,80.9
				c0.3,0,0.7,0.1,1.1,0.1c1.1,0,1.9-0.4,1.9-1.6c0-1.2-1-1.6-2.3-1.6c-0.2,0-0.5,0-0.7,0.1V80.9z"/>
			<path class="st0" d="M254.6,81c-0.1,0-0.3,0-0.6,0c-0.2,0-0.5,0-0.6,0v0c0.3,0,0.3-0.1,0.3-0.2c0,0,0-0.1-0.1-0.3l-0.5-2.3
				l-1.4,2.7h0l-1.5-2.7l-0.5,2.1c0,0.1-0.1,0.2-0.1,0.3c0,0.2,0.1,0.3,0.3,0.3v0c-0.1,0-0.4,0-0.6,0c-0.2,0-0.3,0-0.4,0v0
				c0.3-0.1,0.4-0.2,0.6-0.7l0.7-2.9h0l1.6,2.9l1.5-2.9h0l0.8,3.2C254.2,80.9,254.3,81,254.6,81L254.6,81z"/>
			<path class="st0" d="M256.1,81c-0.1,0-0.3,0-0.6,0c-0.2,0-0.4,0-0.6,0v0c0.2,0,0.3-0.1,0.3-0.4V78c0-0.4-0.1-0.4-0.3-0.4v0
				c0.1,0,0.3,0,0.6,0c0.2,0,0.4,0,0.6,0v0c-0.2,0-0.3,0.1-0.3,0.4v2.6C255.7,81,255.8,81,256.1,81L256.1,81z"/>
			<path class="st0" d="M260.9,81.1l-3.6-3v0.4c0,2.4,0,2.4,0.4,2.5v0c-0.1,0-0.3,0-0.5,0c-0.2,0-0.4,0-0.5,0v0
				c0.4-0.1,0.4-0.1,0.4-2.5v-1.1h0l3.6,3V80c0-2.4,0-2.4-0.4-2.5v0c0.1,0,0.3,0,0.5,0c0.2,0,0.4,0,0.5,0v0
				c-0.4,0.1-0.4,0.1-0.4,2.5L260.9,81.1L260.9,81.1z"/>
			<path class="st0" d="M263,81c-0.1,0-0.3,0-0.6,0c-0.2,0-0.4,0-0.6,0v0c0.2,0,0.3-0.1,0.3-0.4V78c0-0.4-0.1-0.4-0.3-0.4v0
				c0.1,0,0.3,0,0.6,0c0.2,0,0.4,0,0.6,0v0c-0.2,0-0.3,0.1-0.3,0.4v2.6C262.7,81,262.8,81,263,81L263,81z"/>
			<path class="st0" d="M263.8,80.2c0,0,0,0.1,0,0.1c0,0.4,0.5,0.6,1,0.6c0.4,0,0.9-0.2,0.9-0.6c0-1-1.9-0.9-1.9-2
				c0-0.5,0.5-0.9,1.2-0.9c0.4,0,0.6,0.1,0.8,0.1c0,0,0.1,0,0.1,0c0,0.1,0,0.2,0,0.3c0,0.1,0,0.2,0,0.3h0c-0.1-0.4-0.4-0.6-0.9-0.6
				c-0.4,0-0.8,0.2-0.8,0.5c0,0.9,1.9,0.9,1.9,2c0,0.6-0.6,1-1.3,1c-0.4,0-0.6-0.1-0.9-0.1c0,0-0.1,0-0.1,0c0,0,0-0.1,0-0.1
				c0-0.1,0-0.2,0-0.3C263.7,80.4,263.7,80.3,263.8,80.2L263.8,80.2z"/>
			<path class="st0" d="M268.6,81c-0.1,0-0.3,0-0.6,0c-0.2,0-0.4,0-0.6,0v0c0.2,0,0.3-0.1,0.3-0.4v-2.9c-1,0-1.3,0-1.5,0.3h0
				c0.1-0.2,0.1-0.3,0.2-0.6h0c0,0.2,0.2,0.2,1.4,0.2c1.4,0,1.7,0,1.9-0.1h0c0,0.1-0.2,0.4-0.2,0.5h0c0,0,0,0,0-0.1
				c0-0.1-0.2-0.2-1.3-0.2v2.9C268.2,81,268.3,81,268.6,81L268.6,81z"/>
			<path class="st0" d="M273.2,81c-0.1,0-0.1,0-0.2,0c-0.7,0-0.7-0.1-1.5-1.1c-0.1-0.1-0.2-0.3-0.4-0.4h-0.4v1.1
				c0,0.4,0.1,0.4,0.3,0.4v0c-0.1,0-0.3,0-0.6,0c-0.2,0-0.4,0-0.6,0v0c0.2,0,0.3-0.1,0.3-0.4V78c0-0.3-0.1-0.4-0.3-0.4v0
				c0.2,0,0.3,0,0.6,0c0.2,0,0.5,0,0.7,0c1,0,1.5,0.4,1.5,1c0,0.4-0.4,0.8-1.1,0.9C271.9,79.5,272.6,80.8,273.2,81L273.2,81z
				 M271.1,79.4c0.9,0,1.2-0.4,1.2-0.8c0-0.5-0.3-0.9-1-0.9c-0.1,0-0.3,0-0.5,0v1.7H271.1z"/>
			<path class="st0" d="M276.9,81c-0.1,0-0.3,0-0.6,0c-0.2,0-0.4,0-0.6,0v0c0.2,0,0.3-0.1,0.3-0.2c0-0.1,0-0.2-0.1-0.3l-0.4-0.9
				h-0.7c-0.2,0-0.5,0-0.7,0l-0.4,0.8c-0.1,0.1-0.1,0.2-0.1,0.3c0,0.1,0.1,0.2,0.3,0.2v0c-0.1,0-0.4,0-0.6,0c-0.2,0-0.3,0-0.4,0v0
				c0.3-0.1,0.4-0.1,0.7-0.7l1.4-2.9h0.1l1.3,3.2C276.7,80.9,276.7,81,276.9,81L276.9,81z M275,78.1l-0.7,1.4c0.2,0,0.4,0,0.6,0h0.7
				L275,78.1z"/>
			<path class="st0" d="M281.3,80.2c0,0.2,0,0.3,0,0.5c-0.6,0.2-1.1,0.3-1.6,0.3c-1.6,0-2.5-0.9-2.5-1.8c0-0.9,0.8-1.8,2.4-1.8
				c0.7,0,1.2,0.1,1.7,0.2c0,0.1,0,0.3,0,0.5c0,0.1,0,0.1,0,0.2h0c-0.1-0.5-0.7-0.8-1.6-0.8c-1,0-1.9,0.5-1.9,1.7
				c0,1.2,1.1,1.6,2,1.6C280.4,81,281.1,80.7,281.3,80.2L281.3,80.2z"/>
			<path class="st0" d="M281.7,82c0.4-0.1,0.5-0.2,0.5-0.6V78c0-0.4-0.2-0.4-0.4-0.4v0c0.1,0,0.4,0,0.6,0c0.2,0,0.5,0,0.6,0v0
				c-0.2,0-0.4,0.1-0.4,0.4v3C282.7,81.5,282.5,81.9,281.7,82L281.7,82z"/>
			<path class="st0" d="M287,81c-0.1,0-0.3,0-0.6,0c-0.2,0-0.4,0-0.6,0v0c0.2,0,0.3-0.1,0.3-0.2c0-0.1,0-0.2-0.1-0.3l-0.4-0.9H285
				c-0.2,0-0.5,0-0.7,0l-0.4,0.8c-0.1,0.1-0.1,0.2-0.1,0.3c0,0.1,0.1,0.2,0.3,0.2v0c-0.1,0-0.4,0-0.6,0c-0.2,0-0.3,0-0.4,0v0
				c0.3-0.1,0.4-0.1,0.7-0.7l1.4-2.9h0.1l1.3,3.2C286.7,80.9,286.8,81,287,81L287,81z M285.1,78.1l-0.7,1.4c0.2,0,0.4,0,0.6,0h0.7
				L285.1,78.1z"/>
		</g>
		<circle class="st0" cx="146.6" cy="79.3" r="0.5"/>
		<circle class="st0" cx="186.2" cy="79.3" r="0.5"/>
		<circle class="st0" cx="230.4" cy="79.3" r="0.5"/>
	</g>
	<g>
		<g>
			<g>
				<path class="st0" d="M13.1,26.6v38.7c0,16.8,13.6,31.1,30.4,31.1c16.8,0,30.4-14.4,30.4-31.1V26.6H13.1z M69.2,64.7
					c0,14.2-11.6,26.4-25.7,26.4c-14.2,0-25.7-12.2-25.7-26.4V32h51.5V64.7z"/>
			</g>
			<path class="st0" d="M73.9,10.7H29.7c-1.1-3.5-4.3-6-8.1-6c-4.7,0-8.5,3.8-8.5,8.5c0,4.7,3.8,8.5,8.5,8.5c3.8,0,7.1-2.5,8.1-6
				h44.3V10.7z M21.5,16.7c-1.9,0-3.4-1.5-3.4-3.4c0-1.9,1.5-3.4,3.4-3.4c1.9,0,3.4,1.5,3.4,3.4C25,15.2,23.4,16.7,21.5,16.7"/>
			<rect x="62.6" y="3.2" class="st0" width="11.4" height="5.1"/>
		</g>
		<g id="XMLID_00000152951266307817168800000010306475342662349235_">
			<path id="XMLID_00000157309842502695691360000014076381705947014796_" class="st0" d="M45.2,57.4V78c0,1-0.8,1.8-1.8,1.8l0,0
				c-1,0-1.8-0.8-1.8-1.8V57.4c0-1,0.8-1.8,1.8-1.8l0,0C44.4,55.7,45.2,56.4,45.2,57.4z"/>
			<path id="XMLID_00000040545266772056460780000017217622373428850354_" class="st0" d="M52.8,51.8v24.5c0,2-1.8,3.6-4.1,3.6l0,0
				v-28H52.8z"/>
			<path id="XMLID_00000042719351190023508620000006300595173479831228_" class="st0" d="M33.8,51.8v24.5c0,2,1.8,3.6,4.1,3.6l0,0
				v-28H33.8z"/>
			<path id="XMLID_00000110457414279577975010000006870526035414713765_" class="st0" d="M27.7,39.6h31.6l0,0c0,2.4-1.6,4.3-3.5,4.3
				H31.2C29.2,43.9,27.7,42,27.7,39.6L27.7,39.6z"/>
			<path id="XMLID_00000075120095540612087260000011328097953588592295_" class="st0" d="M31.2,47.7h24.6l0,0c0,2.4-1.6,4.4-3.5,4.4
				H34.7C32.8,52.1,31.2,50.2,31.2,47.7L31.2,47.7z"/>
		</g>
	</g>
</g>
</svg>