<?xml version="1.0" encoding="utf-8"?>
<!-- Generator: Adobe Illustrator 27.9.1, SVG Export Plug-In . SVG Version: 6.00 Build 0)  -->
<svg version="1.1" id="Warstwa_1" xmlns="http://www.w3.org/2000/svg" xmlns:xlink="http://www.w3.org/1999/xlink" x="0px" y="0px"
	 viewBox="0 0 1920 1080" style="enable-background:new 0 0 1920 1080;" xml:space="preserve">
<style type="text/css">
	.st0{opacity:4.000000e-02;}
	.st1{fill:#DCD7C7;}
</style>
<g id="Group_715" transform="translate(0 924.015)" class="st0">
	<path id="Path_374" class="st1" d="M-44.6,51.8v83c0,36,29.3,66.8,65.3,66.8s65.3-30.8,65.3-66.8v-83H-44.6z M75.9,133.6
		c0,30.5-24.8,56.6-55.3,56.6s-55.3-26.1-55.3-56.6V63.2H75.9V133.6z"/>
	<path id="Path_375" class="st1" d="M-41.6,23.8h95c3,9.7,13.3,15,23,12s15-13.3,12-23c-3-9.7-13.3-15-23-12
		c-5.7,1.8-10.2,6.3-12,12h-95L-41.6,23.8z M70.9,11c4.1,0,7.4,3.3,7.4,7.4s-3.3,7.4-7.4,7.4c-4.1,0-7.4-3.3-7.4-7.4c0,0,0,0,0,0
		C63.5,14.3,66.8,11,70.9,11"/>
	<rect id="Rectangle_67" x="-41.6" y="28.9" class="st1" width="24.4" height="10.9"/>
	<path id="Path_376" class="st1" d="M-9.4,77.9h64.1c0,4.9-3.2,8.8-7.1,8.8H-2.3C-6.2,86.7-9.4,82.7-9.4,77.9"/>
	<path id="Path_377" class="st1" d="M48.8,93.2c0.1,1.9-1.3,3.6-3.2,3.8c-0.1,0-0.2,0-0.3,0h-0.8v62.4c0,0.8-0.6,1.4-1.4,1.4
		c0,0,0,0,0,0h-5.2c-0.8,0-1.4-0.6-1.4-1.4l0,0v-53.8c0-2.2-1.7-4-3.9-4.1c-2.4,0-4.3,1.9-4.4,4.3c0,0,0,0.1,0,0.1v53.6
		c0,0.8-0.6,1.4-1.4,1.4h-9c-0.8,0-1.4-0.6-1.4-1.4v-53.8c0-2.2-1.7-4-3.9-4.1c-2.4,0-4.3,1.9-4.4,4.3c0,0,0,0.1,0,0.1v53.5
		c0,0.8-0.6,1.4-1.4,1.4H2.2c-0.8,0-1.4-0.6-1.4-1.4V97H0.2c-1.9,0-3.5-1.4-3.7-3.3c-0.1-1.9,1.3-3.6,3.3-3.8c0.1,0,0.2,0,0.2,0
		h45.1C47,89.9,48.6,91.3,48.8,93.2"/>
</g>
<g id="Group_716" transform="translate(940.341 789.187)" class="st0">
	<path id="Path_374-2" class="st1" d="M-44.6,42.9v68.9c0,29.9,24.3,55.4,54.2,55.4s54.2-25.6,54.2-55.4V42.9H-44.6z M55.4,110.8
		c0,25.3-20.6,46.9-45.9,46.9s-45.9-21.7-45.9-46.9V52.5h91.7V110.8z"/>
	<path id="Path_375-2" class="st1" d="M-42.1,19.7h78.8c2.5,8,11,12.5,19,10s12.5-11,10-19c-2.5-8-11-12.5-19-10
		c-4.8,1.5-8.5,5.2-10,10h-78.8L-42.1,19.7z M51.2,9.1c3.4,0,6.1,2.7,6.1,6.1s-2.7,6.1-6.1,6.1c-3.4,0-6.1-2.7-6.1-6.1c0,0,0,0,0,0
		C45.1,11.8,47.8,9.1,51.2,9.1"/>
	<rect id="Rectangle_67-2" x="-42.1" y="24" class="st1" width="20.2" height="9.1"/>
	<path id="Path_376-2" class="st1" d="M-15.4,64.6h53.2c0,4-2.6,7.3-5.9,7.3H-9.5C-12.8,71.9-15.4,68.6-15.4,64.6"/>
	<path id="Path_377-2" class="st1" d="M32.8,77.3c0.1,1.6-1.1,3-2.7,3.1c-0.1,0-0.1,0-0.2,0h-0.7v51.8c0,0.6-0.5,1.1-1.1,1.1l0,0
		h-4.3c-0.6,0-1.1-0.5-1.1-1.1l0,0V87.6c0-1.8-1.4-3.3-3.3-3.4c-2,0-3.6,1.6-3.6,3.5c0,0,0,0.1,0,0.1v44.5c0,0.6-0.5,1.1-1.1,1.1
		H7.2c-0.6,0-1.1-0.5-1.1-1.1V87.6c0-1.8-1.4-3.3-3.3-3.4c-2,0-3.6,1.6-3.6,3.5c0,0,0,0.1,0,0.1v44.4c0,0.7-0.5,1.2-1.2,1.2h-3.7
		c-0.7,0-1.2-0.5-1.2-1.2V80.4h-0.5c-1.6,0-2.9-1.1-3.1-2.7c-0.1-1.6,1.1-3,2.7-3.1c0.1,0,0.1,0,0.2,0h37.4
		C31.3,74.6,32.7,75.8,32.8,77.3"/>
</g>
<g id="Group_717" transform="translate(155.094 208.865)" class="st0">
	<path id="Path_374-3" class="st1" d="M-44.6,47.9v76.9c0,33.3,27.1,61.9,60.4,61.9s60.4-28.5,60.4-61.9V47.9H-44.6z M66.9,123.6
		c0,28.2-23,52.4-51.2,52.4s-51.2-24.2-51.2-52.4V58.5H66.9V123.6z"/>
	<path id="Path_375-3" class="st1" d="M-41.8,22h87.9c2.8,8.9,12.3,13.9,21.2,11.1s13.9-12.3,11.1-21.2S66.2-2,57.2,0.8
		c-5.3,1.7-9.5,5.8-11.1,11.1h-87.9V22z M62.3,10.1c3.8,0,6.8,3.1,6.8,6.8s-3.1,6.8-6.8,6.8c-3.8,0-6.8-3.1-6.8-6.8c0,0,0,0,0,0
		C55.5,13.2,58.5,10.1,62.3,10.1"/>
	<rect id="Rectangle_67-3" x="-41.8" y="26.8" class="st1" width="22.6" height="10.1"/>
	<path id="Path_376-3" class="st1" d="M-12,72.1h59.3c0,4.5-2.9,8.2-6.6,8.2H-5.5C-9.1,80.2-12,76.6-12,72.1"/>
	<path id="Path_377-3" class="st1" d="M41.8,86.3c0.1,1.8-1.2,3.4-3,3.5c-0.1,0-0.2,0-0.2,0h-0.8v57.8c0,0.7-0.6,1.3-1.3,1.3l0,0
		h-4.8c-0.7,0-1.3-0.6-1.3-1.3l0,0V97.7c0-2-1.6-3.7-3.6-3.8c-2.2,0-4,1.7-4,3.9c0,0,0,0.1,0,0.1v49.6c0,0.7-0.6,1.3-1.3,1.3h0h-8.3
		c-0.7,0-1.3-0.6-1.3-1.3l0,0V97.7c0-2-1.6-3.7-3.6-3.8c-2.2,0-4,1.7-4,3.9c0,0,0,0.1,0,0.1v49.5c0,0.7-0.6,1.3-1.3,1.3h0h-4.2
		c-0.7,0-1.3-0.6-1.3-1.3l0,0V89.8h-0.6c-1.8,0-3.2-1.3-3.4-3c-0.1-1.8,1.2-3.3,3-3.5c0.1,0,0.2,0,0.2,0h41.7
		C40.1,83.2,41.6,84.5,41.8,86.3"/>
</g>
<g id="Group_718" transform="translate(1806.094 0)" class="st0">
	<path id="Path_374-4" class="st1" d="M-44.6,75.6V197c0,52.6,42.8,97.7,95.4,97.7s95.4-45.1,95.4-97.7V75.6H-44.6z M131.6,195.2
		c0,44.6-36.3,82.7-80.8,82.7S-30,239.8-30,195.2V92.4h161.6L131.6,195.2z"/>
	<path id="Path_375-4" class="st1" d="M-40.2,34.8H98.7c4.4,14.1,19.4,22,33.6,17.6s22-19.4,17.6-33.6s-19.4-22-33.6-17.6
		c-8.4,2.6-14.9,9.2-17.6,17.6H-40.2V34.8z M124.2,16c6,0,10.8,4.8,10.8,10.8c0,6-4.8,10.8-10.8,10.8c-6,0-10.8-4.8-10.8-10.8
		c0,0,0,0,0,0C113.5,20.8,118.3,16,124.2,16"/>
	<rect id="Rectangle_67-4" x="-40.2" y="42.3" class="st1" width="35.7" height="16"/>
	<path id="Path_376-4" class="st1" d="M6.8,113.8h93.7c0,7.1-4.7,12.9-10.4,12.9H17.3C11.5,126.7,6.8,120.9,6.8,113.8"/>
	<path id="Path_377-4" class="st1" d="M91.9,136.2c0.2,2.8-1.9,5.3-4.7,5.5c-0.1,0-0.3,0-0.4,0h-1.2V233c0,1.1-0.9,2-2,2
		c0,0,0,0,0,0H76c-1.1,0-2-0.9-2-2v-78.7c0-3.2-2.5-5.9-5.8-6.1c-3.5,0-6.3,2.7-6.4,6.2c0,0.1,0,0.1,0,0.2V233c0,1.1-0.9,2-2,2
		c0,0,0,0,0,0H46.7c-1.1,0-2-0.9-2-2c0,0,0,0,0,0v-78.7c0-3.2-2.5-5.9-5.8-6.1c-3.5,0-6.3,2.7-6.4,6.2c0,0.1,0,0.1,0,0.2v78.2
		c0,1.2-0.9,2.1-2.1,2.1h-6.6c-1.2,0-2.1-0.9-2.1-2.1v-91.2h-0.9c-2.8,0.1-5.1-2-5.4-4.8c-0.2-2.8,1.9-5.3,4.8-5.5
		c0.1,0,0.2,0,0.4,0h65.9C89.3,131.4,91.6,133.5,91.9,136.2"/>
</g>
</svg>
