<?xml version="1.0" encoding="utf-8"?>
<!-- Generator: Adobe Illustrator 27.9.1, SVG Export Plug-In . SVG Version: 6.00 Build 0)  -->
<svg version="1.1" id="Warstwa_1" xmlns="http://www.w3.org/2000/svg" xmlns:xlink="http://www.w3.org/1999/xlink" x="0px" y="0px"
	 viewBox="0 0 1920 1080" style="enable-background:new 0 0 1920 1080;" xml:space="preserve">
<style type="text/css">
	.st0{opacity:0.16;fill:#DBAB73;enable-background:new    ;}
	.st1{opacity:0.16;}
	.st2{fill:#DBAB73;}
	.st3{clip-path:url(#SVGID_00000103984318777123589360000011213118240095720125_);}
	.st4{opacity:0.16;clip-path:url(#SVGID_00000081609870105819057080000012090160479636224686_);}
</style>
<g>
	<path id="Path_755" class="st0" d="M1814.5,80.5l24.4,70.8c10.6,30.7,44.6,48.4,75.3,37.8c30.7-10.6,46.6-45.4,36-76.1l-24.4-70.8
		L1814.5,80.5z M1941.2,114.9c8.9,26-4.5,55.5-30.5,64.5c-26,8.9-54.8-6-63.7-32l-20.6-59.9l94.2-32.4L1941.2,114.9z"/>
	<g id="Group_721" transform="translate(15052.552 -19798.562) rotate(90)" class="st1">
		<path id="Path_738" class="st2" d="M20632,13265.9v-205.2c15.6,0,28.3,10.2,28.3,22.8v159.6
			C20660.3,13255.7,20647.7,13265.9,20632,13265.9"/>
		<path id="Path_739" class="st2" d="M20681.2,13079.5c6.2-0.5,11.6,4.2,12.1,10.4c0,0.3,0,0.6,0,0.8v2.6h200c2.4,0,4.4,2,4.4,4.4
			c0,0,0,0,0,0v16.7c0,2.4-2,4.4-4.4,4.4l0,0h-172.4c-7.1,0-12.9,5.5-13.3,12.6c-0.4,7.7,6.3,14,14,14h171.7c2.4,0,4.4,2,4.4,4.4
			v28.7c0,2.4-2,4.4-4.4,4.4h-172.4c-7.1,0-12.9,5.5-13.3,12.6c-0.4,7.7,6.3,14,14,14h171.4c2.6,0,4.6,2.1,4.6,4.6v14.4
			c0,2.6-2.1,4.6-4.6,4.6h-199.7v2c0,6-4.4,11.4-10.4,11.8c-6.2,0.4-11.6-4.2-12-10.4c0-0.3,0-0.5,0-0.8v-144.4
			C20670.8,13085.3,20675.2,13079.9,20681.2,13079.5"/>
	</g>
	<g id="Group_720" transform="matrix(0.454, 0.891, -0.891, 0.454, 44.886, 321.353)" class="st1">
		<g>
			<defs>
				
					<rect id="SVGID_1_" x="69.5" y="-8.1" transform="matrix(0.891 -0.454 0.454 0.891 -14.1241 48.8663)" width="50.4" height="123.9"/>
			</defs>
			<clipPath id="SVGID_00000074439448747618851210000010109966912873631403_">
				<use xlink:href="#SVGID_1_"  style="overflow:visible;"/>
			</clipPath>
			
				<g id="Group_661" transform="translate(0 0)" style="clip-path:url(#SVGID_00000074439448747618851210000010109966912873631403_);">
				<path id="Path_747" class="st2" d="M133.5,42.5c5.2,0,9.3,4.2,9.3,9.3s-4.2,9.3-9.3,9.3c-5.2,0-9.3-4.2-9.3-9.3v0l0,0
					C124.2,46.7,128.4,42.5,133.5,42.5 M155.6,44.9c-3.8-12.2-16.8-19-29-15.2c-7.2,2.3-12.9,7.9-15.2,15.2H32.8v13.8h78.6
					c3.9,12.2,16.9,18.9,29.1,15C152.6,69.9,159.3,57,155.6,44.9"/>
				
					<rect id="Rectangle_472" x="41.3" y="56.7" transform="matrix(2.544122e-06 1 -1 2.544122e-06 120.2922 23.9543)" class="st2" width="13.8" height="30.8"/>
			</g>
		</g>
	</g>
	<g>
		<defs>
			<rect id="SVGID_00000093899120205921920160000010605824395621598090_" x="250.8" y="982" width="76.4" height="117.1"/>
		</defs>
		<clipPath id="SVGID_00000160174981899671727170000012412421442009337253_">
			<use xlink:href="#SVGID_00000093899120205921920160000010605824395621598090_"  style="overflow:visible;"/>
		</clipPath>
		
			<g id="Group_722" transform="translate(337.851 939.826) rotate(90)" style="opacity:0.16;clip-path:url(#SVGID_00000160174981899671727170000012412421442009337253_);">
			<path id="Path_756" class="st2" d="M116.8,37.4c-6.3-20.1-27.7-31.3-47.8-25s-31.3,27.7-25,47.8s27.7,31.3,47.8,25
				c12-3.7,21.3-13.1,25-25h42.4V37.4H116.8z M80.4,64.2c-8.5,0-15.4-6.9-15.4-15.4s6.9-15.4,15.4-15.4s15.4,6.9,15.4,15.4
				C95.8,57.3,88.9,64.2,80.4,64.2"/>
		</g>
	</g>
</g>
</svg>
